PathFileType	4	(X/Y/Z)	P:\Projects\LMB_grand_challenge_database\project_only\opensim\experimental_data\SixthCompetition/DM_ngait_og3_new.trc
DataRate	CameraRate	NumFrames	NumMarkers	Units	OrigDataRate	OrigDataStartFrame	OrigNumFrames
120	120	8	68	mm	120	264	302
Frame#	Time	Sternum			Neck			R_Shoulder			L_Shoulder			Xiphoid			Thoracic			R_Asis			L_Asis			R_Psis			L_Psis			Lumbar			R_Elbow			R_ElbowMedial			R_ShoulderAnterior			R_ShoulderPosterior			R_Wrist			R_Radius			R_Ulna			L_Elbow			L_ElbowMedial			L_ShoulderAnterior			L_ShoulderPosterior			L_Wrist			L_Ulna			L_Radius			L_Thigh_Superior			L_Thigh_Inferior			L_Thigh_Lateral			L_Knee_Lateral			L_Knee_Medial			L_Patella			L_Shank_Superior			L_Shank_Inferior			L_Shank_Lateral			L_Ankle_Lateral			L_Ankle_Medial			R_Thigh_Superior			R_Thigh_Inferior			R_Thigh_Lateral			R_Knee_Lateral			R_Knee_Medial			R_Patella			R_Shank_Superior			R_Shank_Inferior			R_Shank_Lateral			R_Ankle_Lateral			RankleMedial			R_Heel			R_Toe			R_Midfoot_Medial			R_Midfoot_Lateral			R_Hindfoot			R_Midfoot_Superior			R_ToeMedial			R_ToeLateral			L_Heel			L_Toe			L_Midfoot_Medial			L_Midfoot_Lateral			L_Hindfoot			L_Midfoot_Superior			L_ToeMedial			L_ToeLateral			Oglobal			Sacral			Xglobal			Yglobal			Zglobal			
		X1	Y1	Z1	X2	Y2	Z2	X3	Y3	Z3	X4	Y4	Z4	X5	Y5	Z5	X6	Y6	Z6	X7	Y7	Z7	X8	Y8	Z8	X9	Y9	Z9	X10	Y10	Z10	X11	Y11	Z11	X12	Y12	Z12	X13	Y13	Z13	X14	Y14	Z14	X15	Y15	Z15	X16	Y16	Z16	X17	Y17	Z17	X18	Y18	Z18	X19	Y19	Z19	X20	Y20	Z20	X21	Y21	Z21	X22	Y22	Z22	X23	Y23	Z23	X24	Y24	Z24	X25	Y25	Z25	X26	Y26	Z26	X27	Y27	Z27	X28	Y28	Z28	X29	Y29	Z29	X30	Y30	Z30	X31	Y31	Z31	X32	Y32	Z32	X33	Y33	Z33	X34	Y34	Z34	X35	Y35	Z35	X36	Y36	Z36	X37	Y37	Z37	X38	Y38	Z38	X39	Y39	Z39	X40	Y40	Z40	X41	Y41	Z41	X42	Y42	Z42	X43	Y43	Z43	X44	Y44	Z44	X45	Y45	Z45	X46	Y46	Z46	X47	Y47	Z47	X48	Y48	Z48	X49	Y49	Z49	X50	Y50	Z50	X51	Y51	Z51	X52	Y52	Z52	X53	Y53	Z53	X54	Y54	Z54	X55	Y55	Z55	X56	Y56	Z56	X57	Y57	Z57	X58	Y58	Z58	X59	Y59	Z59	X60	Y60	Z60	X61	Y61	Z61	X62	Y62	Z62	X63	Y63	Z63	X64	Y64	Z64	X65	Y65	Z65	X66	Y66	Z66	X67	Y67	Z67	X68	Y68	Z68	

265	4.4	1227.94	1438.18	275.739	1377.79	1344.39	256.657	1329.07	1376.72	432.996	1270.07	1406.53	94.02979999999999	1388.09	1178.38	258.52	1122.78	1253.52	262.349	1291.33	961.633	398.628	1306.52	951.274	117.506	1097.81	1008.42	277.867	1102	1003.89	198.674	1103.58	1055.86	237.973	1310.67	1057.87	521.039	-0	0	0	-0	0	0	-0	0	0	1415.63	798.468	479.668	1409.47	814.4589999999999	435.954	1370.38	798.952	494.802	1115.28	1110.98	-2.9357	-0	0	0	-0	0	0	-0	0	0	1074.4	842.384	-16.9776	1035.78	871.5599999999999	-23.7284	1087.29	856.3339999999999	28.1411	1269.07	792.128	67.2698	1381.24	596.6559999999999	115.452	1385.69	697.84	143.254	-0	0	0	-0	0	0	1449.56	537.9450000000001	177.862	1399.4	448.615	112.944	1464.39	184.983	107.755	1473.91	319.436	177.39	-0	0	0	-0	0	0	1162.54	794.755	423.395	1103.62	584.502	381.259	1211.63	685.487	402.075	-0	0	0	-0	0	0	1149.34	472.091	314.826	999.904	407.98	388.425	924.866	211.59	371.099	1033.44	307.104	307.036	-0	0	0	-0	0	0	801.895	93.4179	314.304	1094.32	47.5658	313.835	1016.8	31.2188	261.746	1003.58	21.3586	377.851	894.366	38.4127	365.035	971.784	122.606	323.095	1060.01	36.9958	269.183	1052	37.5248	361.273	1446.71	50.4526	163.749	1723.8	144.865	130.745	1665.79	100.784	188.939	1643.16	94.1277	76.9147	1545.21	49.0441	94.94589999999999	1577.41	159.374	142.985	1700.58	113.103	175.311	1690.14	115.905	80.9204	-0	0	0	1099.91	1006.15	238.271	-200	0	0	-0	0	200	-0	200	0	
266	4.408333	1237.25	1436.67	273.053	1387.53	1343.22	254.001	1338.38	1375.75	430.227	1279.21	1404.73	91.26000000000001	1398.27	1177.21	256.315	1132.53	1251.53	259.964	1301.17	960.148	397.761	1317.61	949.342	116.457	1108.18	1006.57	276.034	1112.82	1001.89	196.977	1114.06	1053.96	236.007	1318.35	1057.06	519.528	-0	0	0	-0	0	0	-0	0	0	1421.54	797.006	478.977	1415.62	812.4349999999999	435.306	1376.26	797.408	494.061	1124.71	1108.62	-4.57526	-0	0	0	-0	0	0	-0	0	0	1083.21	840.217	-18.5749	1044.64	869.143	-25.1311	1096.39	854.074	26.6477	1282.39	790.477	66.5548	1392.61	595.374	116.919	1399.13	696.982	142.609	-0	0	0	-0	0	0	1460.84	536.038	179.747	1411.55	446.896	114.093	1470.97	182.59	108.422	1482.06	316.125	179.554	-0	0	0	-0	0	0	1171.84	793.7430000000001	422.751	1111.98	583.796	380.271	1220.08	683.956	401.653	-0	0	0	-0	0	0	1156.88	470.513	315.313	1005.83	408.649	387.798	927.943	213.357	370.998	1038.53	306.994	307.341	-0	0	0	-0	0	0	803.515	96.852	314.6	1094.67	47.1243	313.927	1017.47	31.5132	261.981	1003.93	21.2181	378.011	894.899	40.0214	365.172	973.9640000000001	123.285	323.788	1060.37	36.8131	269.158	1052.33	37.2029	361.294	1449.43	50.9004	163.43	1730.5	133.975	136.726	1669.83	92.2525	193.069	1649.13	86.9392	80.5993	1548.82	45.0628	96.2431	1584.1	154.009	145.777	1704.72	103.094	180.165	1696.76	106.293	86.01649999999999	-0	0	0	1110.5	1004.23	236.506	-200	0	0	-0	0	200	-0	200	0	
267	4.416667	1246.67	1435.21	270.174	1397.18	1342.18	251.271	1348.23	1374.75	427.725	1288.3	1402.93	88.39239999999999	1408.57	1176.24	254.034	1142.44	1249.82	257.863	1311.26	958.307	396.619	1328.94	947.914	115.468	1118.77	1004.83	274.132	1123.74	999.942	195.293	1124.74	1052.12	234.222	1326.11	1056.43	517.965	-0	0	0	-0	0	0	-0	0	0	1427.14	795.424	478.112	1421.61	810.6130000000001	434.55	1382.2	795.989	493.329	1134.26	1106.42	-6.3424	-0	0	0	-0	0	0	-0	0	0	1092.88	838.3819999999999	-20.9837	1053.84	866.881	-26.5124	1105.82	851.811	24.8251	1296.08	788.8	66.7178	1404.19	594.229	118.704	1412.88	695.85	141.676	-0	0	0	-0	0	0	1471.69	533.294	182.005	1422.45	445.466	114.222	1478.23	180.591	108.868	1490.15	313.399	180.947	-0	0	0	-0	0	0	1181.5	792.616	422.036	1119.95	583.0170000000001	379.573	1229.11	682.51	401.418	-0	0	0	-0	0	0	1165.32	468.653	315.674	1012.4	409.412	387.147	931.272	215.165	371.052	1043.7	306.502	307.467	-0	0	0	-0	0	0	805.412	100.675	314.973	1095.15	46.3736	313.896	1018.06	31.3071	262.199	1004.33	21.0535	378.211	895.667	42.0341	365.391	976.148	123.759	324.177	1060.64	36.2332	269.033	1052.91	36.855	361.179	1452.42	51.4701	162.69	1736.94	124.064	142.566	1673.37	84.71210000000001	197.934	1655.44	79.4898	84.9859	1551.92	40.617	98.36369999999999	1590.31	148.657	148.179	1708.47	93.69410000000001	185.355	1702.79	97.05240000000001	91.1086	-0	0	0	1121.25	1002.38	234.713	-200	0	0	-0	0	200	-0	200	0	
268	4.425	1256.04	1433.94	267.12	1406.88	1341.33	248.486	1357.69	1373.81	424.941	1297.65	1401.03	85.6506	1418.94	1175.36	251.646	1152.58	1247.79	255.537	1321.69	956.998	395.39	1340.34	946.4	114.474	1129.52	1003.16	272.25	1134.77	998.143	193.539	1135.57	1050.39	232.356	1334.16	1056.13	516.543	-0	0	0	-0	0	0	-0	0	0	1432.78	794.149	477.748	1427.93	809.215	434.16	1387.85	794.784	492.655	1144.03	1104.01	-8.21773	-0	0	0	-0	0	0	-0	0	0	1103.24	836.442	-23.4023	1063.58	864.3920000000001	-28.2963	1115.77	849.556	23.0152	1309.59	787.111	67.31699999999999	1415.65	593.097	120.879	1426.82	694.311	140.768	-0	0	0	-0	0	0	1481.92	530.186	184.213	1432.37	443.953	113.882	1485.55	178.304	108.496	1498.3	311.069	181.484	-0	0	0	-0	0	0	1191.57	791.409	421.184	1129	582.136	378.803	1238.4	681.042	401.154	-0	0	0	-0	0	0	1174.35	466.81	315.975	1019.38	410.114	386.6	935.123	217.31	371.167	1049.6	306.007	307.764	-0	0	0	-0	0	0	807.458	104.95	315.16	1095.85	45.8266	313.748	1018.64	31.127	262.559	1004.5	20.8932	378.523	896.552	44.2733	365.592	978.7430000000001	124.326	324.701	1061.05	36.101	269.281	1053.03	36.5118	361.331	1455.07	52.266	161.616	1742.33	113.676	147.177	1676.23	76.8539	202.298	1661	71.27160000000001	88.9716	1555.32	35.8627	99.5711	1596.66	143.32	149.894	1711.86	84.2587	189.583	1708.15	87.53789999999999	95.2812	-0	0	0	1132.14	1000.65	232.895	-200	0	0	-0	0	200	-0	200	0	
269	4.433333	1265.51	1432.67	264.025	1416.64	1340.57	245.645	1366.92	1373.19	422.28	1306.96	1399.31	82.79810000000001	1429.54	1174.83	249.196	1162.83	1246.19	253.356	1332.39	955.401	393.91	1351.81	945.448	113.394	1140.45	1001.59	270.405	1145.78	996.436	191.764	1146.51	1048.74	230.742	1342.12	1055.91	514.836	-0	0	0	-0	0	0	-0	0	0	1438.37	793.12	477.393	1433.99	807.641	433.534	1393.48	794.021	491.945	1154.04	1101.5	-9.981109999999999	-0	0	0	-0	0	0	-0	0	0	1113.5	833.832	-25.5985	1073.87	861.669	-30.196	1126.17	847.148	20.8647	1323.33	785.814	68.35080000000001	1426.25	591.548	124.04	1440.62	692.167	139.646	-0	0	0	-0	0	0	1492.1	527.397	186.369	1442.07	442.866	112.807	1492.91	176.685	107.74	1506.81	309.175	181.662	-0	0	0	-0	0	0	1201.63	790.175	420.209	1138.48	581.097	378.092	1248.08	679.545	400.547	-0	0	0	-0	0	0	1184.09	464.885	316.345	1027.04	410.831	386.098	939.038	219.79	371.801	1056	305.686	308.142	-0	0	0	-0	0	0	809.9829999999999	109.706	315.612	1096.47	44.7776	313.815	1019.29	31.0018	262.59	1004.96	20.64	378.52	897.562	46.7096	365.723	981.4400000000001	124.864	325.121	1061.5	35.7156	269.356	1053.48	36.0774	361.424	1457.53	53.2382	160.379	1746.88	102.463	150.137	1678.87	68.6374	204.453	1665.2	62.8727	90.9355	1558.34	32.4521	100.123	1602.65	137.813	150.356	1714.77	74.8869	192.449	1712.63	77.62569999999999	97.922	-0	0	0	1143.11	999.0119999999999	231.084	-200	0	0	-0	0	200	-0	200	0	
270	4.441667	1274.99	1431.56	260.797	1426.53	1340.03	242.835	1376.21	1372.79	419.574	1316.33	1397.6	79.90170000000001	1440.26	1174.39	246.767	1173.13	1244.57	250.997	1343.09	953.871	392.198	1363.28	944.787	112.189	1151.36	1000.11	268.377	1156.74	994.88	189.794	1157.41	1047.21	229.022	1350.29	1055.82	513.063	-0	0	0	-0	0	0	-0	0	0	1444.1	792.247	476.91	1440.38	806.48	433.177	1399.24	793.234	491.128	1164.23	1099.2	-12.1689	-0	0	0	-0	0	0	-0	0	0	1124.12	831.585	-27.5233	1084.72	859.355	-32.6959	1137.26	844.562	18.6154	1336.92	785.028	69.5942	1436.59	589.778	127.57	1453.64	689.189	138.406	-0	0	0	-0	0	0	1502.59	525.398	188.819	1452.7	441.739	112.44	1500.21	174.952	106.735	1514.54	306.843	182.191	-0	0	0	-0	0	0	1212.17	788.806	418.992	1148.8	579.862	376.844	1258.29	678.25	399.955	-0	0	0	-0	0	0	1194.29	462.617	316.652	1035.41	411.623	385.549	943.956	222.271	371.714	1062.8	305.027	308.349	-0	0	0	-0	0	0	812.918	114.982	316.004	1096.93	43.6602	313.687	1020.17	31.0576	262.894	1005.46	20.6717	378.775	898.836	49.6001	365.954	984.679	125.652	325.715	1061.9	35.087	269.338	1054.14	35.4324	361.474	1460.06	54.1692	159.507	1751.16	92.24169999999999	151.152	1681.59	61.2321	204.694	1668.3	55.5753	91.12690000000001	1560.95	29.5189	99.724	1608.27	133.033	149.959	1717.8	66.1824	193.401	1715.92	68.3766	98.8595	-0	0	0	1154.05	997.494	229.086	-200	0	0	-0	0	200	-0	200	0	
271	4.45	1284.56	1430.68	257.566	1436.47	1339.67	239.981	1385.72	1372.35	417.115	1325.89	1395.82	77.17019999999999	1450.98	1174.03	244.261	1183.38	1243.09	249.047	1353.87	952.404	390.349	1374.41	944.191	110.875	1162.19	998.8390000000001	266.514	1167.49	993.643	187.888	1168.24	1045.93	227.47	1358.38	1055.94	511.37	-0	0	0	-0	0	0	-0	0	0	1449.94	791.539	476.561	1446.78	805.6420000000001	432.936	1404.86	792.8200000000001	490.259	1174.61	1096.83	-14.2804	-0	0	0	-0	0	0	-0	0	0	1135.72	829.5890000000001	-30.3268	1096.01	856.702	-34.9908	1148.5	842.05	15.993	1350.07	784.8049999999999	71.0706	1448.39	588.48	128.358	1465.46	685.742	137.999	-0	0	0	-0	0	0	1513.36	524.004	190.743	1464.78	440.985	112.885	1506.84	173.311	105.649	1522.01	304.357	182.374	-0	0	0	-0	0	0	1222.95	787.476	417.639	1159.39	578.49	375.976	1268.96	676.91	399.192	-0	0	0	-0	0	0	1205.12	459.962	316.787	1044.46	412.242	385.067	949.61	224.778	371.986	1070.26	304.541	308.614	-0	0	0	-0	0	0	816.419	120.869	316.445	1097.59	42.5734	314.194	1021.11	30.8499	263.411	1005.94	20.6539	379.249	900.462	52.8679	366.339	988.419	126.332	326.402	1062.45	34.326	269.453	1054.69	34.799	361.536	1461.79	55.4294	158.715	1754.54	83.4149	150.712	1683.41	54.5198	204.034	1669.98	48.7766	90.4873	1562.67	26.8607	98.8372	1613.08	128.824	148.862	1720.07	58.7761	193.131	1718.46	60.0145	98.5249	-0	0	0	1164.84	996.241	227.201	-200	0	0	-0	0	200	-0	200	0	
272	4.458333	1294.19	1429.89	254.574	1446.48	1339.46	237.316	1395.22	1372.21	414.632	1335.51	1394.49	74.30629999999999	1461.59	1173.79	241.832	1193.58	1242.11	247.225	1364.85	951.153	388.302	1385.42	944.046	109.588	1173.05	997.85	264.721	1178.16	992.6420000000001	186.227	1179.04	1044.91	226.11	1366.53	1056.06	509.672	-0	0	0	-0	0	0	-0	0	0	1455.55	790.654	475.871	1452.94	804.806	432.49	1410.52	792.567	489.583	1185.3	1094.54	-16.4032	-0	0	0	-0	0	0	-0	0	0	1147.25	827.051	-32.4073	1107.68	854.104	-37.4194	1160.33	839.777	13.6846	1362.68	785.034	72.8135	1460.19	586.929	128.619	1476.22	682.421	139.813	-0	0	0	-0	0	0	1524.17	523.177	192.049	1477.29	440.7	113.044	1512.97	172.086	104.497	1528.78	302.054	182.359	-0	0	0	-0	0	0	1234.1	786.026	416.163	1171.21	576.845	374.811	1280.22	675.583	398.409	-0	0	0	-0	0	0	1217.26	457.422	316.846	1054.57	412.956	384.659	955.49	227.902	372.48	1077.64	304.643	308.795	-0	0	0	-0	0	0	820.6660000000001	127.499	317.039	1098.43	40.7559	313.644	1022.22	30.8522	263.645	1006.74	20.7904	379.453	902.279	56.5031	366.712	992.522	127.169	326.944	1063.12	33.8345	269.507	1055.41	34.202	361.594	1462.96	56.4659	158.261	1757.44	75.23399999999999	149.774	1684.55	48.7589	203.039	1670.65	42.7761	89.5624	1564.1	25.2525	98.4128	1617.36	125.334	147.535	1721.97	52.0917	192.312	1720.59	52.7829	97.70050000000001	-0	0	0	1175.61	995.246	225.474	-200	0	0	-0	0	200	-0	200	0	
